<svg xmlns="http://www.w3.org/2000/svg" width="80" height="80" viewBox="0 0 80 80"><defs><style>.a{fill:#0e0e0e;}</style></defs><path class="a" d="M78.667,13.333H60V10.667h4a1.333,1.333,0,0,0,1.333-1.333v-8A1.333,1.333,0,0,0,64,0H42.667a1.333,1.333,0,0,0-1.333,1.333v8a1.333,1.333,0,0,0,1.333,1.333h4v2.667H32V10.667h4a1.333,1.333,0,0,0,1.333-1.333v-8A1.333,1.333,0,0,0,36,0H14.667a1.333,1.333,0,0,0-1.333,1.333v8a1.333,1.333,0,0,0,1.333,1.333h4v2.667H1.333A1.333,1.333,0,0,0,0,14.667V20a1.333,1.333,0,0,0,1.333,1.333h4V72H2.667a1.333,1.333,0,0,0-1.333,1.333v5.333A1.333,1.333,0,0,0,2.667,80H16a1.333,1.333,0,0,0,1.333-1.333V73.333A1.333,1.333,0,0,0,16,72H13.333V21.333h5.333v2.912A4,4,0,0,0,16,28V49.333a1.333,1.333,0,0,0,.738,1.2L22.071,53.2A1.333,1.333,0,0,0,24,52V48h4a1.333,1.333,0,0,0,1.333-1.333V28a4,4,0,0,0-2.667-3.755V21.333h8v2.912A4,4,0,0,0,32,28V52a1.333,1.333,0,0,0,1.333,1.333h4v12a1.333,1.333,0,0,0,1.929,1.2L44,64.158l4.738,2.376a1.333,1.333,0,0,0,1.929-1.2V56.824l2.667,1.333V64a1.333,1.333,0,0,0,1.929,1.2L60.6,62.533a1.333,1.333,0,0,0,.738-1.2V28a4,4,0,0,0-2.667-3.755V21.333h8V72H64a1.333,1.333,0,0,0-1.333,1.333v5.333A1.333,1.333,0,0,0,64,80H77.333a1.333,1.333,0,0,0,1.333-1.333V73.333A1.333,1.333,0,0,0,77.333,72H74.667V21.333h4A1.333,1.333,0,0,0,80,20V14.667a1.333,1.333,0,0,0-1.333-1.333ZM69.333,24H72V60H69.333Zm0-8H72v5.333H69.333ZM44,2.667H62.667V8H44Zm5.333,8h8v2.667h-8ZM16,2.667H34.667V8H16Zm5.333,8h8v2.667h-8ZM8,24h2.667V60H8Zm2.667-2.667H8V16h2.667Zm-8-2.667V16H5.333v2.667Zm12,58.667H4V74.667H14.667ZM8,72V62.667h2.667V72ZM21.333,49.842l-2.667-1.333V28a1.333,1.333,0,1,1,2.667,0Zm5.333-4.509H24V28a1.333,1.333,0,0,1,2.667,0ZM24,24.246a3.981,3.981,0,0,0-1.333.8,3.981,3.981,0,0,0-1.333-.8V21.333H24Zm16-2.912v2.912a3.981,3.981,0,0,0-1.333.8,3.981,3.981,0,0,0-1.333-.8V21.333Zm10.667,2.912a3.981,3.981,0,0,0-1.333.8,3.981,3.981,0,0,0-1.333-.8V21.333h2.667Zm-5.333,0a3.981,3.981,0,0,0-1.333.8,3.981,3.981,0,0,0-1.333-.8V21.333h2.667ZM34.667,50.667V28a1.333,1.333,0,0,1,2.667,0V50.667ZM40,52V28a1.333,1.333,0,0,1,2.667,0V61.843L40,63.176Zm8,11.176-2.667-1.333V28A1.333,1.333,0,1,1,48,28Zm2.667-9.333V28a1.333,1.333,0,0,1,2.667,0V55.176Zm8,6.667L56,61.842V28a1.333,1.333,0,1,1,2.667,0ZM56,24.243a3.97,3.97,0,0,0-1.333.8,3.97,3.97,0,0,0-1.333-.8v-2.91H56ZM13.333,18.667V16H66.667v2.667ZM76,77.333H65.333V74.667H76ZM69.333,72V62.667H72V72Zm8-53.333H74.667V16h2.667Zm0,0"/></svg>