<svg xmlns="http://www.w3.org/2000/svg" width="18.831" height="16" viewBox="0 0 18.831 16"><defs><style>.a{fill:#b6b6b6;}</style></defs><g transform="translate(0 -38.486)"><g transform="translate(0 38.486)"><g transform="translate(0 0)"><path class="a" d="M17.513,47.624l-.488-1.951a.3.3,0,0,0,.233-.288v-.314a1.24,1.24,0,0,0-1.238-1.238H13.8v-.649a.61.61,0,0,0-.609-.609H9.06l2.51-1a.295.295,0,1,0-.219-.548L9.3,41.845a6.93,6.93,0,0,0,1.482-1.153,1.373,1.373,0,1,0-2.184-1.665,11.927,11.927,0,0,0-1.065,2.547,11.929,11.929,0,0,0-1.065-2.547A1.373,1.373,0,0,0,4.28,40.692a6.928,6.928,0,0,0,1.482,1.153l-2.055-.822a.295.295,0,1,0-.219.548l2.51,1H1.867a.61.61,0,0,0-.609.609v5.347a.295.295,0,1,0,.59,0V43.184a.02.02,0,0,1,.02-.02H13.19a.02.02,0,0,1,.02.02v5.347a.295.295,0,0,0,.59,0V48.2h3.48a.965.965,0,0,1,.916.668h-.917a.3.3,0,0,0-.295.295v.629a.925.925,0,0,0,.924.924h.334v1.3H17.47a1.867,1.867,0,0,0-3.53,0H13.8V49.789a.295.295,0,0,0-.59,0V52.01H7.092a1.867,1.867,0,0,0-3.53,0H1.867a.02.02,0,0,1-.02-.02v-.649H3.125a.295.295,0,1,0,0-.59H.295a.295.295,0,0,0,0,.59h.963v.649a.61.61,0,0,0,.609.609H3.46c0,.007,0,.013,0,.02a1.867,1.867,0,1,0,3.735,0c0-.007,0-.013,0-.02h6.645c0,.007,0,.013,0,.02a1.867,1.867,0,1,0,3.735,0c0-.007,0-.013,0-.02h.964a.3.3,0,0,0,.295-.295V49.16A1.555,1.555,0,0,0,17.513,47.624Zm-11.154-6.1a6.837,6.837,0,0,1-1.61-1.189.783.783,0,0,1,1.246-.95,12.9,12.9,0,0,1,1.027,2.54C6.823,41.807,6.594,41.669,6.359,41.523Zm1.676.4a12.907,12.907,0,0,1,1.027-2.54.783.783,0,0,1,1.246.95A6.838,6.838,0,0,1,8.7,41.523C8.463,41.669,8.234,41.806,8.035,41.924Zm5.764,2.5H16.02a.649.649,0,0,1,.649.649v.02H13.8Zm0,3.184V45.68h2.62l.482,1.926ZM5.327,53.9A1.278,1.278,0,1,1,6.6,52.619,1.279,1.279,0,0,1,5.327,53.9Zm10.379,0a1.278,1.278,0,1,1,1.278-1.278A1.279,1.279,0,0,1,15.706,53.9Zm2.536-3.774h-.334a.335.335,0,0,1-.334-.334v-.334h.668v.668Z" transform="translate(0 -38.486)"/></g></g><g transform="translate(4.718 52.01)"><path class="a" d="M128.876,406.172a.609.609,0,1,0,.609.609A.61.61,0,0,0,128.876,406.172Z" transform="translate(-128.267 -406.172)"/></g><g transform="translate(15.096 52.01)"><path class="a" d="M411.064,406.172a.609.609,0,1,0,.609.609A.61.61,0,0,0,411.064,406.172Z" transform="translate(-410.455 -406.172)"/></g><g transform="translate(7.548 50.752)"><path class="a" d="M209.925,371.967h-4.4a.295.295,0,1,0,0,.59h4.4a.295.295,0,0,0,0-.59Z" transform="translate(-205.227 -371.967)"/></g><g transform="translate(0.629 49.494)"><path class="a" d="M21.171,337.763H17.4a.295.295,0,1,0,0,.59h3.774a.295.295,0,0,0,0-.59Z" transform="translate(-17.102 -337.763)"/></g><g transform="translate(3.145 45.091)"><path class="a" d="M87.064,218.046H85.806a.3.3,0,0,0-.295.295v2.516a.295.295,0,1,0,.59,0v-.963h.649a.295.295,0,1,0,0-.59H86.1v-.668h.963a.295.295,0,0,0,0-.59Z" transform="translate(-85.511 -218.046)"/></g><g transform="translate(5.347 45.091)"><g transform="translate(0 0)"><path class="a" d="M147.041,220.032a1.081,1.081,0,0,0-.591-1.986h-.786a.3.3,0,0,0-.295.295v2.516a.295.295,0,1,0,.59,0v-.649h.491l.541.812a.295.295,0,0,0,.491-.327Zm-.591-.413h-.491v-.983h.491a.491.491,0,1,1,0,.983Z" transform="translate(-145.369 -218.046)"/></g></g><g transform="translate(7.863 45.091)"><path class="a" d="M215.331,220.562h-.963v-.669h.649a.295.295,0,0,0,0-.59h-.649v-.669h.963a.295.295,0,1,0,0-.59h-1.258a.3.3,0,0,0-.295.295v2.516a.3.3,0,0,0,.295.295h1.258a.295.295,0,1,0,0-.59Z" transform="translate(-213.778 -218.046)"/></g><g transform="translate(10.064 45.091)"><path class="a" d="M275.189,220.562h-.963v-.668h.334a.295.295,0,1,0,0-.59h-.334v-.668h.963a.295.295,0,1,0,0-.59h-1.258a.3.3,0,0,0-.295.295v2.516a.3.3,0,0,0,.295.295h1.258a.295.295,0,1,0,0-.59Z" transform="translate(-273.636 -218.046)"/></g></g></svg>