<svg xmlns="http://www.w3.org/2000/svg" width="89.455" height="80" viewBox="0 0 89.455 80"><defs><style>.a{fill:#0e0e0e;}</style></defs><g transform="translate(0)"><path class="a" d="M83.515,13.885h-3.5l0-6.253A7.622,7.622,0,0,0,72.411.015L45.864,0h0a5.621,5.621,0,0,0-4,1.657L2.229,41.288a7.614,7.614,0,0,0,0,10.767L27.948,77.774a7.623,7.623,0,0,0,10.768,0L63.668,52.822A1.747,1.747,0,0,0,61.2,50.351L36.245,75.3a4.124,4.124,0,0,1-5.825,0L4.7,49.584a4.119,4.119,0,0,1,0-5.826l39.63-39.63a2.15,2.15,0,0,1,1.53-.634h0l26.546.015a4.124,4.124,0,0,1,4.117,4.122l-.008,14.641h-7.87a2.439,2.439,0,0,1-1.735-.723,6.449,6.449,0,1,0-3.814.4,5.95,5.95,0,0,0,5.549,3.823h7.868l0,8.376a2.145,2.145,0,0,1-.634,1.529l-4.8,4.8a1.747,1.747,0,0,0,2.471,2.471l4.8-4.8a5.623,5.623,0,0,0,1.657-4l0-8.378h3.5a5.94,5.94,0,0,0,0-11.881Zm-21.227-.336a2.934,2.934,0,0,1,4.623.6A5.964,5.964,0,0,0,62.935,18.2a2.937,2.937,0,0,1-.647-4.653Zm21.227,8.722h-3.5l0-4.892h3.5a2.446,2.446,0,1,1,0,4.892Zm0,0" transform="translate(0)"/><path class="a" d="M161.11,218.258a1.746,1.746,0,0,0,2.151,1.215L181.2,214.48a1.747,1.747,0,1,0-.937-3.366l-17.936,4.992A1.748,1.748,0,0,0,161.11,218.258Zm0,0" transform="translate(-132.908 -174.176)"/><path class="a" d="M199.474,258.384a5.152,5.152,0,1,0,7.286,0,5.118,5.118,0,0,0-7.286,0Zm4.814,4.814a1.656,1.656,0,1,1,0-2.344A1.659,1.659,0,0,1,204.289,263.2Zm0,0" transform="translate(-163.378 -211.997)"/><path class="a" d="M211.725,164.42a5.158,5.158,0,1,0-3.643,1.506A5.158,5.158,0,0,0,211.725,164.42ZM206.91,159.6a1.657,1.657,0,1,1,0,2.344,1.646,1.646,0,0,1,0-2.344Zm0,0" transform="translate(-167.477 -128.435)"/><path class="a" d="M61.92,96.2a1.747,1.747,0,0,0-2.471,0l-4.964,4.964a1.747,1.747,0,0,0,0,2.471L76.64,125.792a1.748,1.748,0,0,0,2.471,0l33.125-33.126a1.747,1.747,0,0,0,0-2.471L90.081,68.039a1.747,1.747,0,0,0-2.471,0L69.333,86.317A1.747,1.747,0,0,0,71.8,88.788L88.846,71.746,108.53,91.43,77.876,122.085,58.191,102.4l3.729-3.729a1.747,1.747,0,0,0,0-2.471Zm0,0" transform="translate(-44.543 -55.729)"/><path class="a" d="M377.368,256.973a1.748,1.748,0,1,0,1.235.512A1.76,1.76,0,0,0,377.368,256.973Zm0,0" transform="translate(-309.994 -212.075)"/><path class="a" d="M113.653,203.4a1.746,1.746,0,1,0-1.235.512A1.749,1.749,0,0,0,113.653,203.4Zm0,0" transform="translate(-91.336 -165.405)"/></g></svg>