<svg xmlns="http://www.w3.org/2000/svg" width="17.891" height="16" viewBox="0 0 17.891 16"><defs><style>.a{fill:#b6b6b6;}</style></defs><g transform="translate(0 0)"><path class="a" d="M16.7,2.777H16V1.526A1.524,1.524,0,0,0,14.482,0L9.173,0h0a1.124,1.124,0,0,0-.8.331L.446,8.258a1.523,1.523,0,0,0,0,2.153l5.144,5.144a1.525,1.525,0,0,0,2.154,0l4.99-4.99a.349.349,0,1,0-.494-.494l-4.99,4.99a.825.825,0,0,1-1.165,0L.94,9.917a.824.824,0,0,1,0-1.165L8.866.826A.43.43,0,0,1,9.172.7h0l5.309,0a.825.825,0,0,1,.823.824l0,2.928H13.729a.488.488,0,0,1-.347-.145,1.29,1.29,0,1,0-.763.079,1.19,1.19,0,0,0,1.11.765H15.3V6.828a.429.429,0,0,1-.127.306l-.959.959a.349.349,0,0,0,.494.494l.959-.959a1.125,1.125,0,0,0,.331-.8V5.153h.7a1.188,1.188,0,0,0,0-2.376ZM12.457,2.71a.587.587,0,0,1,.925.119,1.193,1.193,0,0,0-.8.811.587.587,0,0,1-.129-.931ZM16.7,4.454H16V3.476h.7a.489.489,0,1,1,0,.978Zm0,0" transform="translate(0)"/><path class="a" d="M161.058,212.491a.349.349,0,0,0,.43.243l3.587-1a.349.349,0,1,0-.187-.673l-3.587,1A.35.35,0,0,0,161.058,212.491Zm0,0" transform="translate(-155.418 -203.675)"/><path class="a" d="M198.267,257.179a1.03,1.03,0,1,0,1.457,0A1.023,1.023,0,0,0,198.267,257.179Zm.963.963a.331.331,0,1,1,0-.469A.332.332,0,0,1,199.23,258.142Zm0,0" transform="translate(-191.048 -247.902)"/><path class="a" d="M204.691,157.384a1.032,1.032,0,1,0-.729.3A1.032,1.032,0,0,0,204.691,157.384Zm-.963-.963a.331.331,0,1,1,0,.469.329.329,0,0,1,0-.469Zm0,0" transform="translate(-195.842 -150.187)"/><path class="a" d="M55.562,73.262a.349.349,0,0,0-.494,0l-.993.993a.349.349,0,0,0,0,.494l4.431,4.431a.35.35,0,0,0,.494,0l6.625-6.625a.349.349,0,0,0,0-.494L61.194,67.63a.349.349,0,0,0-.494,0l-3.656,3.656a.349.349,0,0,0,.494.494l3.408-3.408,3.937,3.937-6.131,6.131L54.816,74.5l.746-.746a.349.349,0,0,0,0-.494Zm0,0" transform="translate(-52.087 -65.168)"/><path class="a" d="M375.97,256.973a.35.35,0,1,0,.247.1A.352.352,0,0,0,375.97,256.973Zm0,0" transform="translate(-362.496 -247.993)"/><path class="a" d="M111.268,201.018a.349.349,0,1,0-.247.1A.35.35,0,0,0,111.268,201.018Zm0,0" transform="translate(-106.805 -193.418)"/></g></svg>