<svg xmlns="http://www.w3.org/2000/svg" width="12" height="10.448" viewBox="0 0 12 10.448"><defs><style>.a{fill:#fff;}</style></defs><g transform="translate(0 -19.401)"><path class="a" d="M.212,24.41l2.765,1.032,1.07,3.442a.325.325,0,0,0,.517.156l1.541-1.256a.46.46,0,0,1,.561-.016l2.78,2.018a.326.326,0,0,0,.511-.2l2.036-9.8a.326.326,0,0,0-.436-.37L.209,23.8A.326.326,0,0,0,.212,24.41Zm3.663.483,5.4-3.328a.094.094,0,0,1,.114.149l-4.46,4.146a.924.924,0,0,0-.287.553l-.152,1.126a.14.14,0,0,1-.273.02l-.584-2.053A.544.544,0,0,1,3.875,24.893Z" transform="translate(0 0)"/></g></svg>