<svg xmlns="http://www.w3.org/2000/svg" width="9.738" height="10" viewBox="0 0 9.738 10"><defs><style>.a{fill:#fff;}</style></defs><g transform="translate(-4.219)"><path class="a" d="M168.884,44.008a3.024,3.024,0,0,0-2.677-2.881l-.1-.015a1.391,1.391,0,0,0-.227-.025.381.381,0,0,0-.408.342.4.4,0,0,0,.059.31.586.586,0,0,0,.421.181c.042.006.081.011.114.019a2.133,2.133,0,0,1,2.007,2.094c.005.032.008.072.01.115.01.158.03.488.384.488h0a.629.629,0,0,0,.094-.008c.33-.05.32-.351.315-.5a.736.736,0,0,1,0-.1A.141.141,0,0,0,168.884,44.008Z" transform="translate(-156.242 -39.812)"/><path class="a" d="M160.925.8c.04,0,.077.006.108.01a3.616,3.616,0,0,1,3.485,3.59,1.3,1.3,0,0,1,.006.132c0,.173.009.532.395.54h.012a.379.379,0,0,0,.286-.109.6.6,0,0,0,.105-.463c0-.037,0-.072,0-.1A4.474,4.474,0,0,0,161.128.006h-.054c-.023,0-.05,0-.08,0S160.918,0,160.877,0a.4.4,0,0,0-.437.408C160.42.761,160.761.786,160.925.8Z" transform="translate(-151.369)"/><path class="a" d="M13.043,22.786c-.047-.036-.095-.073-.14-.109-.24-.193-.495-.371-.741-.543l-.153-.107a1.53,1.53,0,0,0-.868-.33,1.125,1.125,0,0,0-.937.593.5.5,0,0,1-.427.259.848.848,0,0,1-.344-.086,4.141,4.141,0,0,1-2.164-2.107c-.2-.452-.136-.748.218-.989a1,1,0,0,0,.549-.877,5.01,5.01,0,0,0-1.763-2.4,1,1,0,0,0-.681,0,1.97,1.97,0,0,0-1.226,1.008,1.874,1.874,0,0,0,.027,1.513,12.206,12.206,0,0,0,2.678,4.077,12.983,12.983,0,0,0,4.063,2.7,2.25,2.25,0,0,0,.4.119l.093.022a.156.156,0,0,0,.04.006h.013a2.305,2.305,0,0,0,1.914-1.457C13.836,23.391,13.4,23.055,13.043,22.786Z" transform="translate(0 -15.528)"/><path class="a" d="M170.609,83.556a.462.462,0,0,0-.486.28.375.375,0,0,0,.016.326.488.488,0,0,0,.368.195.87.87,0,0,1,.808.87.411.411,0,0,0,.392.406h0l.046,0c.249-.03.369-.212.358-.543a1.551,1.551,0,0,0-.484-1.049A1.444,1.444,0,0,0,170.609,83.556Z" transform="translate(-160.724 -80.96)"/></g></svg>