<svg xmlns="http://www.w3.org/2000/svg" width="94.155" height="80" viewBox="0 0 94.155 80"><defs><style>.a{fill:#f04950;}</style></defs><g transform="translate(0 -38.486)"><g transform="translate(0 38.486)"><g transform="translate(0 0)"><path class="a" d="M87.564,84.176l-2.438-9.753a1.475,1.475,0,0,0,1.167-1.442V71.409A6.2,6.2,0,0,0,80.1,65.217H68.995V61.974a3.05,3.05,0,0,0-3.047-3.047H45.3l12.549-5.02a1.474,1.474,0,1,0-1.1-2.738l-10.275,4.11c3.131-2.009,6.229-4.22,7.408-5.766a6.866,6.866,0,1,0-10.919-8.327c-1.678,2.2-3.891,8.381-5.323,12.736C36.21,49.567,34,43.386,32.319,41.186A6.866,6.866,0,1,0,21.4,49.513c1.179,1.546,4.277,3.757,7.408,5.766L18.533,51.17a1.474,1.474,0,1,0-1.1,2.738l12.549,5.02H9.337A3.05,3.05,0,0,0,6.29,61.974V88.707a1.474,1.474,0,1,0,2.949,0V61.974a.1.1,0,0,1,.1-.1H65.948a.1.1,0,0,1,.1.1V88.707a1.474,1.474,0,0,0,2.949,0V87.036h17.4a4.824,4.824,0,0,1,4.581,3.342H86.391a1.474,1.474,0,0,0-1.474,1.474V95a4.624,4.624,0,0,0,4.619,4.619h1.671V106.1H87.352a9.334,9.334,0,0,0-17.648,0h-.71V95a1.474,1.474,0,0,0-2.949,0V106.1H35.459a9.334,9.334,0,0,0-17.648,0H9.337a.1.1,0,0,1-.1-.1v-3.243h6.388a1.474,1.474,0,1,0,0-2.949H1.474a1.474,1.474,0,0,0,0,2.949H6.29V106a3.05,3.05,0,0,0,3.047,3.047H17.3c0,.033,0,.065,0,.1a9.337,9.337,0,1,0,18.674,0c0-.033,0-.065,0-.1H69.194c0,.033,0,.065,0,.1a9.337,9.337,0,1,0,18.674,0c0-.033,0-.065,0-.1h4.819a1.474,1.474,0,0,0,1.474-1.474V91.852A7.776,7.776,0,0,0,87.564,84.176ZM31.8,53.671c-5.815-3.614-7.54-5.276-8.051-5.946a3.917,3.917,0,0,1,6.23-4.751c1.426,1.87,3.66,8.163,5.134,12.7C34.114,55.087,32.97,54.4,31.8,53.671Zm8.381,2c1.474-4.535,3.708-10.828,5.134-12.7a3.917,3.917,0,0,1,6.23,4.751c-.511.67-2.236,2.332-8.051,5.946C42.316,54.4,41.172,55.087,40.177,55.673ZM68.995,68.165H80.1a3.247,3.247,0,0,1,3.243,3.243v.1H68.995Zm0,15.922V74.456h13.1L84.5,84.087Zm-42.36,31.451a6.388,6.388,0,1,1,6.388-6.388A6.4,6.4,0,0,1,26.635,115.538Zm51.894,0a6.388,6.388,0,1,1,6.388-6.388A6.4,6.4,0,0,1,78.528,115.538Zm12.679-18.87H89.536A1.673,1.673,0,0,1,87.865,95V93.326h3.342v3.342Z" transform="translate(0 -38.486)"/></g></g><g transform="translate(23.588 106.103)"><path class="a" d="M131.314,406.172a3.047,3.047,0,1,0,3.047,3.047A3.05,3.05,0,0,0,131.314,406.172Z" transform="translate(-128.267 -406.172)"/></g><g transform="translate(75.482 106.103)"><path class="a" d="M413.5,406.172a3.047,3.047,0,1,0,3.047,3.047A3.05,3.05,0,0,0,413.5,406.172Z" transform="translate(-410.455 -406.172)"/></g><g transform="translate(37.741 99.813)"><path class="a" d="M228.717,371.967H206.7a1.474,1.474,0,0,0,0,2.949h22.015a1.474,1.474,0,1,0,0-2.949Z" transform="translate(-205.227 -371.967)"/></g><g transform="translate(3.145 93.523)"><path class="a" d="M37.447,337.763H18.576a1.474,1.474,0,0,0,0,2.949h18.87a1.474,1.474,0,0,0,0-2.949Z" transform="translate(-17.102 -337.763)"/></g><g transform="translate(15.725 71.507)"><path class="a" d="M93.276,218.046h-6.29a1.474,1.474,0,0,0-1.474,1.474V232.1a1.474,1.474,0,0,0,2.949,0v-4.816H91.7a1.474,1.474,0,0,0,0-2.949H88.46v-3.341h4.816a1.474,1.474,0,1,0,0-2.949Z" transform="translate(-85.511 -218.046)"/></g><g transform="translate(26.733 71.507)"><g transform="translate(0 0)"><path class="a" d="M153.728,227.976a5.4,5.4,0,0,0-2.953-9.93h-3.931a1.474,1.474,0,0,0-1.474,1.474V232.1a1.474,1.474,0,0,0,2.949,0v-3.243h2.454l2.707,4.061a1.474,1.474,0,0,0,2.453-1.635Zm-2.953-2.067h-2.457v-4.914h2.457a2.457,2.457,0,1,1,0,4.914Z" transform="translate(-145.369 -218.046)"/></g></g><g transform="translate(39.313 71.507)"><path class="a" d="M221.543,230.626h-4.816V227.28c.033,0,.065,0,.1,0h3.145a1.474,1.474,0,0,0,0-2.949h-3.145c-.033,0-.066,0-.1,0v-3.347h4.816a1.474,1.474,0,1,0,0-2.949h-6.29a1.474,1.474,0,0,0-1.474,1.474V232.1a1.474,1.474,0,0,0,1.474,1.474h6.29a1.474,1.474,0,1,0,0-2.948Z" transform="translate(-213.778 -218.046)"/></g><g transform="translate(50.321 71.507)"><path class="a" d="M281.4,230.626h-4.816v-3.342h1.671a1.474,1.474,0,1,0,0-2.949h-1.671v-3.342H281.4a1.474,1.474,0,1,0,0-2.949h-6.29a1.474,1.474,0,0,0-1.474,1.474V232.1a1.474,1.474,0,0,0,1.474,1.474h6.29a1.474,1.474,0,1,0,0-2.948Z" transform="translate(-273.636 -218.046)"/></g></g></svg>