<svg xmlns="http://www.w3.org/2000/svg" viewBox="0 0 15.881 21">
    <path d="M57.389-1c-2.86,0-3.6,2.948-3.6,4.933V4.02h-2.38a.378.378,0,0,0-.375.341L49.95,16.59v.034A2.554,2.554,0,0,0,52.648,19h9.485a2.554,2.554,0,0,0,2.7-2.376V16.59L63.743,4.361a.375.375,0,0,0-.375-.341h-2.38V3.933C60.989,1.948,60.248-1,57.389-1Zm-2.85,4.933c0-1.573.283-4.183,2.85-4.183s2.85,2.61,2.85,4.183V4.02h-5.7V3.933Zm8.485.837,1.053,11.868a1.814,1.814,0,0,1-1.948,1.61H52.648a1.814,1.814,0,0,1-1.948-1.61L51.754,4.771h2.035V6.506a.375.375,0,1,0,.75,0V4.771h5.7V6.506a.375.375,0,1,0,.75,0V4.771Z" transform="translate(-49.45 1.5)" stroke-width="1"/>
</svg>
