<svg xmlns="http://www.w3.org/2000/svg" width="16" height="16" viewBox="0 0 16 16">
    <path d="M15.733,2.667H12V2.133h.8a.267.267,0,0,0,.267-.267V.267A.267.267,0,0,0,12.8,0H8.533a.267.267,0,0,0-.267.267v1.6a.267.267,0,0,0,.267.267h.8v.533H6.4V2.133h.8a.267.267,0,0,0,.267-.267V.267A.267.267,0,0,0,7.2,0H2.933a.267.267,0,0,0-.267.267v1.6a.267.267,0,0,0,.267.267h.8v.533H.267A.267.267,0,0,0,0,2.933V4a.267.267,0,0,0,.267.267h.8V14.4H.533a.267.267,0,0,0-.267.267v1.067A.267.267,0,0,0,.533,16H3.2a.267.267,0,0,0,.267-.267V14.667A.267.267,0,0,0,3.2,14.4H2.667V4.267H3.733v.582A.8.8,0,0,0,3.2,5.6V9.867a.267.267,0,0,0,.148.24l1.067.533A.267.267,0,0,0,4.8,10.4V9.6h.8a.267.267,0,0,0,.267-.267V5.6a.8.8,0,0,0-.533-.751V4.267h1.6v.582A.8.8,0,0,0,6.4,5.6v4.8a.267.267,0,0,0,.267.267h.8v2.4a.267.267,0,0,0,.386.24l.948-.475.948.475a.267.267,0,0,0,.386-.24v-1.7l.533.267V12.8a.267.267,0,0,0,.386.24l1.067-.533a.267.267,0,0,0,.148-.24V5.6a.8.8,0,0,0-.533-.751V4.267h1.6V14.4H12.8a.267.267,0,0,0-.267.267v1.067A.267.267,0,0,0,12.8,16h2.667a.267.267,0,0,0,.267-.267V14.667a.267.267,0,0,0-.267-.267h-.533V4.267h.8A.267.267,0,0,0,16,4V2.933a.267.267,0,0,0-.267-.267ZM13.867,4.8H14.4V12h-.533Zm0-1.6H14.4V4.267h-.533ZM8.8.533h3.733V1.6H8.8Zm1.067,1.6h1.6v.533h-1.6ZM3.2.533H6.933V1.6H3.2Zm1.067,1.6h1.6v.533h-1.6ZM1.6,4.8h.533V12H1.6Zm.533-.533H1.6V3.2h.533Zm-1.6-.533V3.2h.533v.533Zm2.4,11.733H.8v-.533H2.933ZM1.6,14.4V12.533h.533V14.4ZM4.267,9.968,3.733,9.7V5.6a.267.267,0,1,1,.533,0Zm1.067-.9H4.8V5.6a.267.267,0,1,1,.533,0ZM4.8,4.849a.8.8,0,0,0-.267.16.8.8,0,0,0-.267-.16V4.267H4.8ZM8,4.267v.582a.8.8,0,0,0-.267.16.8.8,0,0,0-.267-.16V4.267Zm2.133.582a.8.8,0,0,0-.267.16.8.8,0,0,0-.267-.16V4.267h.533Zm-1.067,0a.8.8,0,0,0-.267.16.8.8,0,0,0-.267-.16V4.267h.533ZM6.933,10.133V5.6a.267.267,0,1,1,.533,0v4.533ZM8,10.4V5.6a.267.267,0,1,1,.533,0v6.768L8,12.635Zm1.6,2.235-.533-.267V5.6a.267.267,0,1,1,.533,0Zm.533-1.867V5.6a.267.267,0,1,1,.533,0v5.435Zm1.6,1.333-.533.267V5.6a.267.267,0,1,1,.533,0ZM11.2,4.849a.794.794,0,0,0-.267.16.794.794,0,0,0-.267-.16V4.267H11.2ZM2.667,3.733V3.2H13.333v.533ZM15.2,15.467H13.067v-.533H15.2ZM13.867,14.4V12.533H14.4V14.4Zm1.6-10.667h-.533V3.2h.533Zm0,0"/>
</svg>
