<svg xmlns="http://www.w3.org/2000/svg" width="55" height="49.027" viewBox="0 0 55 49.027"><defs><style>.a{fill:#ffa2aa; stroke: #ffa2aa;}</style></defs><g transform="translate(0 -33.234)"><g transform="translate(0 33.234)"><path class="a" d="M209.224,40.42l-33.685-7.129a2.656,2.656,0,0,0-3.139,2.043l-.64,4.113,38.867,8.225.64-4.113A2.656,2.656,0,0,0,209.224,40.42Z" transform="translate(-156.324 -33.234)"/><path class="a" d="M38.735,170.407a2.682,2.682,0,0,0-3.291-1.862l-6.395,1.775-15.075-3.19-1.658,7.834L1.958,177.839A2.681,2.681,0,0,0,.1,181.129l5.838,21.037a2.681,2.681,0,0,0,3.291,1.861l33.486-9.293a2.682,2.682,0,0,0,1.861-3.291l-1-3.611,3.756.794a2.655,2.655,0,0,0,3.139-2.043l2.376-11.228-13.528-2.863ZM42.6,181.1l.828-3.914a1.093,1.093,0,0,1,1.291-.84l3.914.829a1.093,1.093,0,0,1,.841,1.291l-.828,3.914a1.093,1.093,0,0,1-1.291.84l-3.914-.828A1.093,1.093,0,0,1,42.6,181.1ZM2.54,179.938l9.267-2.571L33.673,171.3l2.353-.654a.489.489,0,0,1,.128-.017.505.505,0,0,1,.48.361l.276.995.866,3.119L3.338,184.66,2.2,180.547A.5.5,0,0,1,2.54,179.938Zm39.932,12.087a.5.5,0,0,1-.344.609L8.643,201.926a.487.487,0,0,1-.128.018.506.506,0,0,1-.48-.362l-3.4-12.27,34.437-9.557,2.1,7.568Z" transform="translate(0 -155.097)"/><path class="a" d="M95.107,445.4a1.093,1.093,0,0,0-1.342-.759l-3.911,1.086a1.093,1.093,0,0,0-.758,1.342l1.085,3.91a1.092,1.092,0,0,0,1.342.758l3.911-1.085a1.093,1.093,0,0,0,.759-1.342Z" transform="translate(-81.054 -407.632)"/></g></g></svg>
