<svg xmlns="http://www.w3.org/2000/svg" width="55" height="55" viewBox="0 0 55 55"><defs><style>.a{fill:#f04950;}</style></defs><g transform="translate(-0.001 -0.501)"><path class="a" d="M54.444,12.4,33.024.633a1.075,1.075,0,0,0-1.034,0L23.916,5.066a1.077,1.077,0,0,0-.461.253L10.569,12.4a1.074,1.074,0,0,0-.557.942V27.563A14.311,14.311,0,0,0,1.452,47.481a1.074,1.074,0,0,0,1.93-.943A12.145,12.145,0,1,1,8.964,52.12a1.074,1.074,0,0,0-.943,1.93,14.32,14.32,0,0,0,19.339-7.027l4.629,2.542a1.074,1.074,0,0,0,1.034,0L54.444,37.8A1.075,1.075,0,0,0,55,36.861V29.4a1.074,1.074,0,1,0-2.148,0v6.83L33.584,46.806V25.733l6.359-3.492v5.536a1.074,1.074,0,0,0,1.592.941l4.59-2.527a1.073,1.073,0,0,0,.556-.941v-6.71l6.171-3.388V20.8A1.074,1.074,0,1,0,55,20.8V13.337a1.074,1.074,0,0,0-.557-.942ZM32.506,2.8,51.7,13.337l-6.053,3.324L26.454,6.124Zm0,21.074L13.318,13.337l6.275-3.446L38.782,20.428ZM41.013,19.2,21.825,8.666l2.4-1.316L43.411,17.886ZM24.4,31.1A14.2,14.2,0,0,0,14.3,26.912a14.489,14.489,0,0,0-2.137.158V15.152L31.436,25.737V46.81l-3.346-1.837a14.363,14.363,0,0,0,.5-3.768A14.2,14.2,0,0,0,24.4,31.1Zm20.129-6.483-2.442,1.344v-4.9l2.442-1.341Zm0,0"/><path class="a" d="M493.074,219.441a1.075,1.075,0,1,0,.759.315A1.083,1.083,0,0,0,493.074,219.441Zm0,0" transform="translate(-439.147 -195.421)"/><path class="a" d="M69.112,328.725a1.074,1.074,0,0,0,.76-1.834l-.744-.744h6.349a2.793,2.793,0,0,1,0,5.586H71.714a1.074,1.074,0,1,0,0,2.148h3.762a4.941,4.941,0,1,0,0-9.882H69.128l.744-.744a1.074,1.074,0,0,0-1.519-1.519l-2.578,2.578a1.075,1.075,0,0,0,0,1.519l2.578,2.578A1.071,1.071,0,0,0,69.112,328.725Zm0,0" transform="translate(-58.427 -286.447)"/><path class="a" d="M37.143,458.582a1.069,1.069,0,0,1-.821-.382l0,0a1.072,1.072,0,1,1,.823.385Zm0,0" transform="translate(-32.192 -406.954)"/></g></svg>