<svg xmlns="http://www.w3.org/2000/svg" width="54.992" height="55" viewBox="0 0 54.992 55"><defs><style>.a{fill:#f04950;}</style></defs><g transform="translate(-0.037 0)"><g transform="translate(9.274 7.602)"><path class="a" d="M121.192,79.767,105.555,71.1a2.608,2.608,0,0,0-2.541,0h0L87.376,79.767a2.623,2.623,0,0,0-1.351,2.294V99.279a2.623,2.623,0,0,0,1.351,2.294l15.637,8.664a2.607,2.607,0,0,0,2.541,0l15.637-8.664a2.623,2.623,0,0,0,1.351-2.294V82.061A2.623,2.623,0,0,0,121.192,79.767Zm-17.137-6.785a.471.471,0,0,1,.459,0l6.244,3.46L95.7,84.786l-6.39-3.633Zm-.844,34.908-14.793-8.2a.474.474,0,0,1-.244-.415v-16.3l6.979,3.968.005,0,8.053,4.578ZM97.886,86.029l15.088-8.36,6.489,3.595-15.172,8.406Zm22.509,13.25a.474.474,0,0,1-.244.415l-14.793,8.2V91.535L120.395,83.2Z" transform="translate(-86.025 -70.773)"/></g><g transform="translate(12.711 24.069)"><path class="a" d="M125.3,227.328l-5.691-3.134a1.074,1.074,0,0,0-1.592.941v4.541a1.074,1.074,0,0,0,.556.941l5.691,3.134a1.074,1.074,0,0,0,1.592-.941v-4.541A1.074,1.074,0,0,0,125.3,227.328Zm-1.592,3.664-3.543-1.951v-2.088l3.543,1.951Z" transform="translate(-118.02 -224.06)"/></g><g transform="translate(20.037 36.991)"><path class="a" d="M190.658,346.059l-2.846-1.567a1.074,1.074,0,0,0-1.036,1.882l2.846,1.567a1.074,1.074,0,1,0,1.036-1.882Z" transform="translate(-186.22 -344.358)"/></g><g transform="translate(15.976 7.844)"><path class="a" d="M182.454,76.841l1.982-1.982a1.074,1.074,0,0,0-.759-1.833h-5.335a1.074,1.074,0,0,0-1.074,1.074v5.335a1.074,1.074,0,0,0,1.833.759l1.81-1.81a25.355,25.355,0,0,1-30.992,37.572,1.074,1.074,0,0,0-.852,1.972,27.42,27.42,0,0,0,10.884,2.252,27.76,27.76,0,0,0,4.979-.452,27.5,27.5,0,0,0,17.524-42.889Zm-3.038,0V75.174h1.667Z" transform="translate(-148.418 -73.026)"/></g><g transform="translate(12.71 48.996)"><path class="a" d="M119.691,456.293l-.042-.026a1.074,1.074,0,0,0-1.117,1.835l.042.026a1.074,1.074,0,1,0,1.117-1.835Z" transform="translate(-118.016 -456.11)"/></g><g transform="translate(40.296 3.909)"><path class="a" d="M376.5,36.587l-.053-.033a1.074,1.074,0,1,0-1.126,1.83l.053.033a1.074,1.074,0,0,0,1.126-1.83Z" transform="translate(-374.814 -36.395)"/></g><g transform="translate(0.037 0)"><path class="a" d="M38.381,2.226A27.5,27.5,0,0,0,5.054,43.34L3.072,45.322a1.074,1.074,0,0,0,.759,1.833H9.166a1.074,1.074,0,0,0,1.074-1.074V40.746a1.074,1.074,0,0,0-1.833-.759L6.6,41.8A25.355,25.355,0,0,1,37.534,4.2a1.074,1.074,0,1,0,.847-1.974ZM8.092,43.34v1.667H6.425Z" transform="translate(-0.037 0)"/></g></g></svg>