<svg xmlns="http://www.w3.org/2000/svg" width="9" height="12" viewBox="0 0 9 12"><defs><style>.a{fill:#fff;}</style></defs><g transform="translate(-64)"><path class="a" d="M72.974,7.026a7.073,7.073,0,0,0-1.706-3.9A4.68,4.68,0,0,1,70,.25a.25.25,0,0,0-.136-.222.248.248,0,0,0-.26.019,6.358,6.358,0,0,0-2.347,3.392A11.072,11.072,0,0,0,67,5.974c-1.02-.218-1.25-1.743-1.253-1.759a.25.25,0,0,0-.357-.19c-.053.026-1.312.665-1.386,3.219C64,7.33,64,7.415,64,7.5A4.505,4.505,0,0,0,68.5,12h.013A4.505,4.505,0,0,0,73,7.5C73,7.375,72.974,7.026,72.974,7.026Z"/></g></svg>