<svg xmlns="http://www.w3.org/2000/svg" width="55" height="46.731" viewBox="0 0 55 46.731"><defs><style>.a{fill:#ffa2aa;}</style></defs><g transform="translate(0 -38.486)"><g transform="translate(0 38.486)"><g transform="translate(0 0)"><path class="a" d="M51.15,65.176l-1.424-5.7a.861.861,0,0,0,.682-.842v-.919A3.621,3.621,0,0,0,46.79,54.1H40.3V52.206a1.782,1.782,0,0,0-1.78-1.78H26.46l7.33-2.932a.861.861,0,0,0-.64-1.6l-6,2.4a20.242,20.242,0,0,0,4.327-3.368A4.011,4.011,0,0,0,25.1,40.063c-.98,1.285-2.273,4.9-3.11,7.44-.837-2.544-2.13-6.155-3.11-7.44A4.011,4.011,0,0,0,12.5,44.928,20.236,20.236,0,0,0,16.828,48.3l-6-2.4a.861.861,0,1,0-.64,1.6l7.33,2.932H5.454a1.782,1.782,0,0,0-1.78,1.78V67.822a.861.861,0,1,0,1.722,0V52.206a.057.057,0,0,1,.057-.057H38.523a.057.057,0,0,1,.057.057V67.822a.861.861,0,0,0,1.722,0v-.976H50.467A2.818,2.818,0,0,1,53.142,68.8H50.465a.861.861,0,0,0-.861.861V71.5a2.7,2.7,0,0,0,2.7,2.7h.976v3.789H51.026a5.452,5.452,0,0,0-10.309,0H40.3V71.5a.861.861,0,0,0-1.722,0v6.487H20.713a5.452,5.452,0,0,0-10.309,0H5.454a.057.057,0,0,1-.057-.057V76.032H9.128a.861.861,0,0,0,0-1.722H.861a.861.861,0,1,0,0,1.722H3.674v1.895a1.782,1.782,0,0,0,1.78,1.78h4.652c0,.019,0,.038,0,.057a5.454,5.454,0,0,0,10.908,0c0-.019,0-.038,0-.057H40.419c0,.019,0,.038,0,.057a5.454,5.454,0,0,0,10.908,0c0-.019,0-.038,0-.057h2.815A.861.861,0,0,0,55,78.845V69.659A4.542,4.542,0,0,0,51.15,65.176ZM18.573,47.357c-3.4-2.111-4.4-3.082-4.7-3.473a2.288,2.288,0,0,1,3.639-2.775c.833,1.092,2.138,4.769,3,7.418C19.927,48.183,19.259,47.783,18.573,47.357Zm4.9,1.169c.861-2.649,2.166-6.325,3-7.418a2.288,2.288,0,0,1,3.639,2.775c-.3.391-1.306,1.362-4.7,3.473C24.718,47.783,24.05,48.183,23.469,48.526Zm16.834,7.3H46.79a1.9,1.9,0,0,1,1.895,1.895v.057H40.3Zm0,9.3V59.5h7.652l1.407,5.626ZM15.558,83.5a3.732,3.732,0,1,1,3.732-3.732A3.736,3.736,0,0,1,15.558,83.5Zm30.313,0A3.732,3.732,0,1,1,49.6,79.764,3.736,3.736,0,0,1,45.872,83.5Zm7.406-11.023H52.3a.977.977,0,0,1-.976-.976V70.52h1.952v1.952Z" transform="translate(0 -38.486)"/></g></g><g transform="translate(13.779 77.984)"><path class="a" d="M130.047,406.172a1.78,1.78,0,1,0,1.78,1.78A1.782,1.782,0,0,0,130.047,406.172Z" transform="translate(-128.267 -406.172)"/></g><g transform="translate(44.092 77.984)"><path class="a" d="M412.235,406.172a1.78,1.78,0,1,0,1.78,1.78A1.782,1.782,0,0,0,412.235,406.172Z" transform="translate(-410.455 -406.172)"/></g><g transform="translate(22.046 74.31)"><path class="a" d="M218.948,371.967h-12.86a.861.861,0,0,0,0,1.722h12.86a.861.861,0,1,0,0-1.722Z" transform="translate(-205.227 -371.967)"/></g><g transform="translate(1.837 70.635)"><path class="a" d="M28.986,337.763H17.963a.861.861,0,0,0,0,1.722H28.986a.861.861,0,0,0,0-1.722Z" transform="translate(-17.102 -337.763)"/></g><g transform="translate(9.186 57.775)"><path class="a" d="M90.047,218.046H86.372a.861.861,0,0,0-.861.861v7.349a.861.861,0,1,0,1.722,0v-2.813h1.895a.861.861,0,0,0,0-1.722H87.233v-1.952h2.813a.861.861,0,1,0,0-1.722Z" transform="translate(-85.511 -218.046)"/></g><g transform="translate(15.616 57.775)"><g transform="translate(0 0)"><path class="a" d="M150.252,223.846a3.156,3.156,0,0,0-1.725-5.8h-2.3a.861.861,0,0,0-.861.861v7.349a.861.861,0,0,0,1.722,0v-1.895h1.434l1.581,2.372a.861.861,0,0,0,1.433-.955Zm-1.725-1.208h-1.435v-2.871h1.435a1.435,1.435,0,1,1,0,2.871Z" transform="translate(-145.369 -218.046)"/></g></g><g transform="translate(22.964 57.775)"><path class="a" d="M218.314,225.395H215.5V223.44l.057,0h1.837a.861.861,0,1,0,0-1.722h-1.837l-.057,0v-1.955h2.813a.861.861,0,1,0,0-1.722h-3.674a.861.861,0,0,0-.861.861v7.349a.861.861,0,0,0,.861.861h3.674a.861.861,0,1,0,0-1.722Z" transform="translate(-213.778 -218.046)"/></g><g transform="translate(29.395 57.775)"><path class="a" d="M278.172,225.395h-2.813v-1.952h.976a.861.861,0,0,0,0-1.722h-.976v-1.952h2.813a.861.861,0,0,0,0-1.722H274.5a.861.861,0,0,0-.861.861v7.349a.861.861,0,0,0,.861.861h3.674a.861.861,0,1,0,0-1.722Z" transform="translate(-273.636 -218.046)"/></g></g></svg>