<svg xmlns="http://www.w3.org/2000/svg" width="55" height="55" viewBox="0 0 55 55"><defs><style>.a{fill:#ffa2aa;}</style></defs><g transform="translate(0 0)"><path class="a" d="M50.166,12.891H43.609A8.052,8.052,0,0,0,37.168,0a7.231,7.231,0,0,0-6.21,3.017A31.283,31.283,0,0,0,27.5,10.182a31.28,31.28,0,0,0-3.458-7.165A7.231,7.231,0,0,0,17.832,0a8.052,8.052,0,0,0-6.441,12.891H4.834A4.839,4.839,0,0,0,0,17.725v3.223A4.842,4.842,0,0,0,3.223,25.5V50.166A4.839,4.839,0,0,0,8.057,55H46.943a4.839,4.839,0,0,0,4.834-4.834V25.5A4.842,4.842,0,0,0,55,20.947V17.725A4.839,4.839,0,0,0,50.166,12.891ZM30.458,11.466c2.468-6.262,3.407-8.244,6.71-8.244a4.834,4.834,0,1,1,0,9.668H29.894C30.092,12.395,30.28,11.918,30.458,11.466ZM17.832,3.223c3.3,0,4.242,1.981,6.71,8.244.178.451.366.929.564,1.424H17.832a4.834,4.834,0,1,1,0-9.668Zm3.223,48.555h-13a1.613,1.613,0,0,1-1.611-1.611V25.781H21.055Zm0-29.219H4.834a1.613,1.613,0,0,1-1.611-1.611V17.725a1.613,1.613,0,0,1,1.611-1.611H21.055Zm9.668,29.219H24.277V16.113h6.445Zm17.832-1.611a1.613,1.613,0,0,1-1.611,1.611h-13v-26H48.555Zm3.223-29.219a1.613,1.613,0,0,1-1.611,1.611H33.945V16.113H50.166a1.613,1.613,0,0,1,1.611,1.611Z" transform="translate(0 0)"/></g></svg>