<svg id="instagram" xmlns="http://www.w3.org/2000/svg" width="25" height="25" viewBox="0 0 25 25">
  <g id="Group_325">
    <g id="Group_324">
      <path id="Path_75"  d="M17.188,0H7.813A7.813,7.813,0,0,0,0,7.813v9.375A7.813,7.813,0,0,0,7.813,25h9.375A7.813,7.813,0,0,0,25,17.188V7.813A7.813,7.813,0,0,0,17.188,0Zm5.469,17.188a5.475,5.475,0,0,1-5.469,5.469H7.813a5.475,5.475,0,0,1-5.469-5.469V7.813A5.475,5.475,0,0,1,7.813,2.344h9.375a5.475,5.475,0,0,1,5.469,5.469Z" fill="#f04950"/>
    </g>
  </g>
  <g id="Group_327" transform="translate(6.25 6.25)">
    <g id="Group_326">
      <path id="Path_76" d="M134.25,128a6.25,6.25,0,1,0,6.25,6.25A6.25,6.25,0,0,0,134.25,128Zm0,10.156a3.906,3.906,0,1,1,3.906-3.906A3.912,3.912,0,0,1,134.25,138.156Z" transform="translate(-128 -128)" fill="#f04950"/>
    </g>
  </g>
  <g id="Group_329" transform="translate(18.386 4.948)">
    <g id="Group_328">
      <circle id="Ellipse_17" cx="0.833" cy="0.833" r="0.833" fill="#f04950"/>
    </g>
  </g>
</svg>
