<svg xmlns="http://www.w3.org/2000/svg" width="18.011" height="16" viewBox="0 0 18.011 16"><defs><style>.a{fill:rgba(255,255,255,0.2);stroke:#9f9f9f;stroke-linecap:round;stroke-linejoin:round;stroke-width:2px;}</style></defs><path class="a" d="M15.974,6a4.407,4.407,0,0,0-4.33-4.174,4.362,4.362,0,0,0-3.688,2,4.2,4.2,0,0,0-3.6-2A4.406,4.406,0,0,0,.027,6,4.058,4.058,0,0,0,.163,7.587a6.741,6.741,0,0,0,2.215,3.479l5.574,4.76,5.67-4.76a6.742,6.742,0,0,0,2.215-3.479A4.067,4.067,0,0,0,15.974,6Z" transform="translate(1.005 -0.826)"/></svg>