<svg xmlns="http://www.w3.org/2000/svg" width="25.015" height="23" viewBox="0 0 25.015 23">
  <path id="like" d="M21.964,7.79c-.321-3.456-2.823-5.963-5.954-5.963a5.945,5.945,0,0,0-5.07,2.857A5.726,5.726,0,0,0,5.99,1.826C2.86,1.826.358,4.333.037,7.789a6.016,6.016,0,0,0,.187,2.266,9.682,9.682,0,0,0,3.046,4.97l7.665,6.8,7.8-6.8a9.683,9.683,0,0,0,3.046-4.97A6.03,6.03,0,0,0,21.964,7.79Z" transform="translate(1.507 -0.326)" fill="rgba(255,255,255,0.2)" stroke="#f04950" stroke-linecap="round" stroke-linejoin="round" stroke-width="3"/>
</svg>
