<svg xmlns="http://www.w3.org/2000/svg" width="21.667" height="20" viewBox="0 0 21.667 20"><defs><style>.a{fill:#ffa2aa;}</style></defs><g transform="translate(0 -18.271)"><path class="a" d="M20.931,27.34a2.407,2.407,0,0,0-1.765-.736h-.833V23.271a3.473,3.473,0,0,0-.886-2.135l-1.979-1.979a3.465,3.465,0,0,0-2.135-.885H4.583a1.245,1.245,0,0,0-1.25,1.25V26.6H2.5a2.407,2.407,0,0,0-1.764.736A2.406,2.406,0,0,0,0,29.1v5.417a.4.4,0,0,0,.124.293.4.4,0,0,0,.293.123H3.333v2.083a1.245,1.245,0,0,0,1.25,1.25h12.5a1.245,1.245,0,0,0,1.25-1.25V34.938H21.25a.422.422,0,0,0,.416-.417V29.1A2.406,2.406,0,0,0,20.931,27.34ZM16.667,36.6H5V33.271H16.667Zm0-8.333H5V19.938h8.333v2.083a1.244,1.244,0,0,0,1.25,1.25h2.083v5Zm3.086,1.419A.817.817,0,1,1,20,29.1.8.8,0,0,1,19.753,29.69Z" transform="translate(0)"/></g></svg>