<svg xmlns="http://www.w3.org/2000/svg" width="55" height="55" viewBox="0 0 55 55"><defs><style>.a{fill:#ffa2aa; stroke: #ffa2aa;}</style></defs><g transform="translate(-0.003 0)"><g transform="translate(0.003 0)"><g transform="translate(0 0)"><path class="a" d="M54.787,49.807,51.011,38.818A26.871,26.871,0,1,0,26.9,53.791h.042a26.979,26.979,0,0,0,11.88-2.783l10.989,3.776A3.947,3.947,0,0,0,51.094,55a3.922,3.922,0,0,0,3.693-5.193Zm-3.24,1.737a.63.63,0,0,1-.677.157l-11.644-4a1.63,1.63,0,0,0-1.292.1,23.625,23.625,0,1,1,9.87-9.87,1.63,1.63,0,0,0-.1,1.292l4,11.644A.63.63,0,0,1,51.546,51.544Z" transform="translate(-0.003 0)"/></g></g><g transform="translate(25.002 38.967)"><path class="a" d="M234.351,362.748a1.63,1.63,0,1,0,1.63,1.63A1.649,1.649,0,0,0,234.351,362.748Z" transform="translate(-232.719 -362.748)"/></g><g transform="translate(18.521 13.715)"><path class="a" d="M180.507,127.674a8.121,8.121,0,0,0-8.112,8.112,1.63,1.63,0,1,0,3.261,0,4.851,4.851,0,1,1,4.851,4.851,1.631,1.631,0,0,0-1.63,1.63v6.65a1.63,1.63,0,1,0,3.261,0v-5.184a8.112,8.112,0,0,0-1.63-16.059Z" transform="translate(-172.395 -127.674)"/></g></g></svg>
