<svg xmlns="http://www.w3.org/2000/svg" width="18" height="18" viewBox="0 0 18 18"><defs><style>.a{fill:#78c38b;}</style></defs><g transform="translate(-2.006)"><g transform="translate(2.006)"><path class="a" d="M16.7,11.44A3.3,3.3,0,0,0,14.112,12.7L8.495,9.848A3.233,3.233,0,0,0,8.621,9a3.207,3.207,0,0,0-.15-.92l5.593-2.835a3.26,3.26,0,1,0-.673-1.965,3.219,3.219,0,0,0,.127.851L7.9,6.978a3.277,3.277,0,1,0,.049,3.984L13.54,13.8a3.215,3.215,0,0,0-.151.923A3.308,3.308,0,1,0,16.7,11.44Z" transform="translate(-2.006 0)"/></g></g></svg>
