<svg xmlns="http://www.w3.org/2000/svg" width="16" height="16" viewBox="0 0 16 16"><defs><style>.a{fill:#fff;}</style></defs><g transform="translate(-2.006)"><g transform="translate(2.006)"><path class="a" d="M15.064,10.169a2.93,2.93,0,0,0-2.3,1.117L7.774,8.754A2.874,2.874,0,0,0,7.886,8a2.85,2.85,0,0,0-.134-.818l4.972-2.52a2.9,2.9,0,1,0-.6-1.747,2.861,2.861,0,0,0,.113.757L7.246,6.2a2.913,2.913,0,1,0,.043,3.541l4.969,2.52a2.858,2.858,0,0,0-.134.82,2.94,2.94,0,1,0,2.94-2.916Z" transform="translate(-2.006 0)"/></g></g></svg>